HIERARCHY
ROOT Hips
{
  OFFSET 0 119.972 0
  CHANNELS 6 Xposition Yposition Zposition Zrotation Xrotation Yrotation
  JOINT RightUpLeg
  {
    OFFSET -12.8929 0 0
    CHANNELS 3 Zrotation Xrotation Yrotation
    JOINT RightLeg
    {
      OFFSET 0 -60.3041 0
      CHANNELS 3 Zrotation Xrotation Yrotation
      JOINT RightFoot
      {
        OFFSET 0 -53.4221 0
        CHANNELS 3 Zrotation Xrotation Yrotation
        JOINT RightToeBase
        {
          OFFSET 0 -5.41187 17.795
          CHANNELS 3 Zrotation Xrotation Yrotation
          End Site
          {
            OFFSET 0 0 11.0798
          }
        }
      }
    }
  }
  JOINT LeftUpLeg
  {
    OFFSET 12.8929 0 0
    CHANNELS 3 Zrotation Xrotation Yrotation
    JOINT LeftLeg
    {
      OFFSET 0 -60.3041 0
      CHANNELS 3 Zrotation Xrotation Yrotation
      JOINT LeftFoot
      {
        OFFSET 0 -53.4221 0
        CHANNELS 3 Zrotation Xrotation Yrotation
        JOINT LeftToeBase
        {
          OFFSET 0 -5.41187 17.795
          CHANNELS 3 Zrotation Xrotation Yrotation
          End Site
          {
            OFFSET 0 0 11.0798
          }
        }
      }
    }
  }
  JOINT Spine
  {
    OFFSET 0 0.123189 0
    CHANNELS 3 Zrotation Xrotation Yrotation
    JOINT Spine1
    {
      OFFSET 0 41.8862 0
      CHANNELS 3 Zrotation Xrotation Yrotation
      JOINT RightShoulder
      {
        OFFSET 0 31.7409 0
        CHANNELS 3 Zrotation Xrotation Yrotation
        JOINT RightDummyShoulder
        {
          OFFSET 0 0 0
          CHANNELS 3 Zrotation Xrotation Yrotation
          JOINT RightArm
          {
            OFFSET -26.6195 -0.000158232 0
            CHANNELS 3 Zrotation Xrotation Yrotation
            JOINT RightForeArm
            {
              OFFSET -34.6831 -0.000156075 0
              CHANNELS 3 Zrotation Xrotation Yrotation
              JOINT RightHand
              {
                OFFSET -29.3377 -0.000116518 0
                CHANNELS 3 Zrotation Xrotation Yrotation
                End Site
                {
                  OFFSET -15.4188 0 0
                }
              }
            }
          }
        }
      }
      JOINT LeftShoulder
      {
        OFFSET 0 31.7409 0
        CHANNELS 3 Zrotation Xrotation Yrotation
        JOINT LeftDummyShoulder
        {
          OFFSET 0 0 0
          CHANNELS 3 Zrotation Xrotation Yrotation
          JOINT LeftArm
          {
            OFFSET 26.6195 -0.000158232 0
            CHANNELS 3 Zrotation Xrotation Yrotation
            JOINT LeftForeArm
            {
              OFFSET 34.6831 -0.000156075 0
              CHANNELS 3 Zrotation Xrotation Yrotation
              JOINT LeftHand
              {
                OFFSET 29.3377 -0.000116518 0
                CHANNELS 3 Zrotation Xrotation Yrotation
                End Site
                {
                  OFFSET 15.4188 0 0
                }
              }
            }
          }
        }
      }
      JOINT Neck
      {
        OFFSET 0 24.8104 0
        CHANNELS 3 Zrotation Xrotation Yrotation
        JOINT Head
        {
          OFFSET 0 21.3219 0
          CHANNELS 3 Zrotation Xrotation Yrotation
          End Site
          {
            OFFSET 0 17.7899 0
          }
        }
      }
    }
  }
}
MOTION
Frames:	6
Frame Time:	0.0333333
-288.613 116.431 -520.194 -0.752568 -4.12504 -16.6769 0.784258 -3.0833 -13.9714 4.16092 18.1642 -11.3421 -4.6895 -11.5564 -7.026 -1.52985e-06 -5.00958e-08 -3.14307e-06 5.09444 -19.3991 9.10167 0.697305 51.3454 8.6079 -3.92886 -3.75628 6.35946 6.2797e-07 1.66013e-06 1.78051e-06 0.911885 6.18904 2.23841 1.59237 12.4085 4.41603 14.1398 -0.295524 -4.62761 3.97569e-16 4.77083e-15 -6.36111e-15 49.9678 39.4761 16.9412 -13.5287 -8.62142 31.9238 1.84297 15.763 -7.6911 -15.173 -0.54963 5.55392 -1.04362e-15 4.77083e-15 3.97569e-16 -58.5383 27.5562 -15.179 13.7629 -7.77699 -28.9188 4.85404 24.6092 6.05447 3.17868 9.87257 8.11244 0.786859 -19.0821 9.46733 
-288.696 116.812 -518.711 0.145354 -3.99588 -16.8152 -0.0576483 -2.43958 -13.5585 4.05185 17.413 -11.3615 -4.40633 -11.5083 -7.08685 -1.45489e-06 1.60116e-06 3.11801e-06 3.19406 -19.1593 7.43742 1.14222 41.8339 9.40172 -3.29208 -2.61149 7.08617 2.0312e-06 -3.68218e-06 -7.33228e-06 0.680189 6.1613 2.40678 1.10748 12.3455 4.78139 14.0594 -0.28543 -4.58381 4.77083e-15 -3.18055e-15 -0 49.6206 39.0506 17.3317 -13.4295 -8.34424 31.2893 1.76582 14.459 -7.76458 -15.2368 -0.533064 5.46958 -8.44835e-16 -3.18055e-15 -9.93923e-17 -57.8882 27.9658 -15.506 13.739 -7.25782 -27.326 4.71558 24.1036 6.45937 3.36393 9.82242 8.69093 0.452792 -19.0108 10.1456 
-288.881 117.225 -517.195 0.869269 -4.03915 -16.8972 -0.668265 -1.46386 -12.876 3.89415 16.4493 -11.5467 -4.00546 -11.4177 -7.27715 -4.52603e-07 -4.30336e-07 -6.03559e-09 1.73005 -18.0366 5.88602 0.425779 32.0762 8.45112 -3.1522 -2.42612 6.08764 -4.20075e-07 8.51316e-07 -3.02731e-06 0.477635 6.19826 2.51366 0.685564 12.4114 5.01951 13.8599 -0.229811 -4.32211 -1.98785e-15 -3.18055e-15 -0 49.2788 38.942 17.4113 -13.3494 -8.19198 30.9828 1.54194 13.0394 -7.76124 -15.1846 -0.502031 5.32986 2.96935e-15 -3.18055e-15 1.49089e-16 -57.0653 29.1556 -15.9023 13.8329 -6.82258 -25.7551 4.32311 23.3505 7.14799 3.60769 9.86465 9.10202 0.293578 -18.9131 10.6624 
-289.141 117.449 -515.65 1.22129 -4.1594 -16.6825 -1.02144 -0.387126 -12.6216 3.84236 15.8646 -11.7177 -3.59878 -11.6731 -7.43337 -2.2005e-06 -1.04786e-06 3.1001e-06 0.581089 -16.4086 4.82161 -0.626316 23.4891 6.80273 -3.34505 -0.247575 4.70692 8.15808e-07 1.55864e-06 8.91188e-06 0.370731 6.24155 2.46801 0.47311 12.4932 4.93953 13.6169 -0.174443 -4.05995 -4.77083e-15 -1.59028e-15 6.36111e-15 48.8785 39.0791 17.478 -13.158 -8.03325 30.8707 1.47276 11.7788 -7.85696 -14.9045 -0.438304 5.05719 -1.54058e-15 -3.18055e-15 -3.97569e-16 -56.7801 29.318 -16.0256 13.4918 -6.20957 -24.267 3.86701 23.9659 7.4263 4.03027 10.1555 9.35237 0.172369 -18.7216 11.0801 
-289.469 117.378 -514.037 1.01152 -4.39517 -16.0389 -0.958222 0.627777 -12.8113 3.87446 16.2076 -11.9452 -3.06215 -12.4632 -7.57517 7.05246e-07 -1.97231e-06 -5.45574e-06 -0.292589 -14.9979 4.23473 -1.41598 18.3567 6.31133 -4.74256 3.21076 4.45837 2.23395e-07 -5.66772e-08 -7.90469e-06 0.419273 6.30959 2.25746 0.591823 12.6308 4.5096 13.4315 -0.18535 -4.12467 5.56597e-15 -1.59028e-15 3.18055e-15 48.1926 39.5436 17.877 -12.7595 -7.78076 30.8732 1.37098 10.3333 -8.0265 -14.5472 -0.319112 4.51727 4.96962e-17 0 3.97569e-16 -56.7069 29.1606 -15.7158 13.2395 -5.82038 -23.3172 3.31374 25.5684 7.4339 4.79765 10.6147 9.48199 -0.177518 -18.335 11.5087 
-289.878 117.091 -512.378 0.438692 -4.71531 -15.3902 -0.555744 1.50658 -13.0508 3.85098 17.3671 -12.1964 -2.53095 -13.6728 -7.71623 1.46737e-07 6.3935e-08 2.56936e-09 -0.929205 -14.1244 4.91323 -1.45326 17.0715 5.83285 -4.97516 4.62458 4.22703 1.71236e-06 -1.2684e-06 1.93687e-07 0.530251 6.3506 1.98378 0.845275 12.7157 3.94467 13.3493 -0.212047 -4.2641 -0 0 3.18055e-15 47.2559 40.3713 18.5143 -12.2573 -7.49973 30.9964 1.2531 8.11043 -8.24564 -14.2012 -0.237616 4.14274 -8.94531e-16 0 1.98785e-15 -56.4282 29.4942 -15.3172 13.1248 -5.62851 -22.8133 2.97553 27.0671 7.38577 5.78551 11.414 9.68529 -0.783295 -17.9297 12.1373 
